<svg width="87" height="31" viewBox="0 0 87 31" fill="none" xmlns="http://www.w3.org/2000/svg">
<path d="M37.7823 9.40529C37.4549 9.40529 37.1509 9.50537 36.899 9.67644C36.4823 9.95957 36.2085 10.4373 36.2085 10.9791C36.2085 11.5209 36.4823 11.9987 36.899 12.2818C37.1509 12.4529 37.4549 12.5529 37.7823 12.5529C38.6515 12.5529 39.3561 11.8483 39.3561 10.9791C39.3561 10.1098 38.6515 9.40529 37.7823 9.40529Z" fill="#FFCA02"/>
<path d="M12.2289 18.2178L10.113 17.7158C7.96137 17.2137 5.02066 16.4607 5.02066 14.4524C5.02066 12.8386 6.74207 11.8345 9.07306 11.8345C11.8344 11.8345 13.6275 13.3048 14.3449 14.9186L17.9668 13.771C16.9269 10.9738 13.6275 8.82208 9.32411 8.82208C5.2001 8.82208 1.1118 10.9021 1.1118 14.7034C1.1118 18.5765 5.41514 19.9751 7.81796 20.5489L10.1848 21.1227C12.2289 21.5889 14.6676 22.1627 14.6676 24.0634C14.6676 26.2151 11.7627 26.8965 9.96962 26.8965C7.42348 26.8965 4.76963 25.6054 3.58622 23.2385L0 24.3144C1.21931 27.6854 5.09238 29.9089 10.0055 29.9089C15.2055 29.9089 18.7557 27.3268 18.7557 23.6689C18.7557 19.7241 14.4882 18.72 12.2289 18.2178Z" fill="white"/>
<path d="M27.5778 3.62209H23.7408V9.39586H19.0068V12.6952H23.7408V23.1669C23.7408 25.3544 23.7408 29.9089 30.2317 29.9089C31.7737 29.9089 33.4234 29.622 34.6427 29.0482V25.713C33.3158 26.3227 31.989 26.6096 30.949 26.6096C27.5778 26.6096 27.5778 24.0275 27.5778 21.9475V12.6951H34.6427V9.39584H27.5778V3.62209Z" fill="white"/>
<path d="M36.9658 14.6895C36.9564 14.7145 36.9466 14.7393 36.9375 14.7646L36.9658 14.7732V14.6895Z" fill="white"/>
<path d="M55.8369 16.147C55.8369 11.6352 51.5694 9.4668 46.6562 9.4668H40.7358V12.4047H46.5487C49.7763 12.4047 51.8921 14.0135 51.8921 15.7973C51.8921 18.0357 48.3776 18.1406 44.4328 18.8051C40.0577 19.5745 36.1128 20.9386 36.1128 24.6809C36.1128 28.2833 39.7707 30.032 43.859 30.032C47.8038 30.032 50.6727 28.3882 52.0715 26.1148H52.179C52.179 27.304 52.3225 28.3533 52.7528 29.4374H56.59C56.1237 27.8985 55.8369 26.5695 55.8369 23.3868V16.147ZM51.8921 21.8829C51.8921 24.1912 49.1307 27.234 44.6839 27.234C42.1018 27.234 40.3087 26.2547 40.3087 24.6109C40.3087 22.1977 44.1818 21.5331 46.5487 21.1484C49.3101 20.6937 50.4577 20.379 51.8921 19.7145V21.8829Z" fill="white"/>
<path d="M87.0001 12.6951V9.39585H79.9353V3.62208H76.0981V9.39585H65.1608V7.35172C65.1608 5.23585 65.1608 3.11996 68.9262 3.11996C70.0738 3.11996 71.1138 3.33518 72.4766 3.90895V0.753107C71.2214 0.215192 69.6078 0 68.2091 0C63.0808 0 61.3235 2.61793 61.3235 7.06481V9.39583H57.7373V12.6593H61.3235V29.2992H65.1608V12.6593H70.5821L72.4171 12.6951H76.0981V23.1668C76.0981 25.3544 76.0981 29.9089 82.589 29.9089C84.1312 29.9089 85.7807 29.622 87.0001 29.0482V25.713C85.6733 26.3227 84.3463 26.6096 83.3063 26.6096C79.9353 26.6096 79.9353 24.0275 79.9353 21.9475V12.6951H87.0001Z" fill="white"/>
</svg>
