<svg width="115" height="40" viewBox="0 0 115 40" fill="none" xmlns="http://www.w3.org/2000/svg">
<path d="M49.9424 12.5271C49.5096 12.5271 49.1078 12.6604 48.7748 12.8883C48.224 13.2654 47.8621 13.9017 47.8621 14.6233C47.8621 15.3449 48.224 15.9813 48.7748 16.3583C49.1078 16.5863 49.5096 16.7195 49.9424 16.7195C51.0913 16.7195 52.0227 15.781 52.0227 14.6233C52.0227 13.4655 51.0913 12.5271 49.9424 12.5271Z" fill="#FFCA02"/>
<path d="M16.1646 24.2647L13.3678 23.596C10.5237 22.9273 6.6365 21.9243 6.6365 19.2494C6.6365 17.0999 8.91193 15.7625 11.9931 15.7625C15.6432 15.7625 18.0134 17.7209 18.9616 19.8703L23.7492 18.3418C22.3747 14.6161 18.0134 11.7502 12.325 11.7502C6.87369 11.7502 1.46961 14.5206 1.46961 19.5837C1.46961 24.7424 7.15795 26.6052 10.3341 27.3695L13.4626 28.1337C16.1647 28.7547 19.3883 29.5189 19.3883 32.0505C19.3883 34.9164 15.5485 35.824 13.1782 35.824C9.81264 35.824 6.30468 34.1044 4.74041 30.9518L0 32.3848C1.61173 36.8748 6.7313 39.8362 13.2257 39.8362C20.0992 39.8362 24.7921 36.3971 24.7921 31.5251C24.7921 26.2709 19.1511 24.9335 16.1646 24.2647Z" fill="#05494C"/>
<path d="M36.4537 4.82449H31.3818V12.5147H25.1243V16.9091H31.3818V30.8566C31.3818 33.7703 31.3818 39.8365 39.9617 39.8365C42.0001 39.8365 44.1807 39.4544 45.7924 38.6901V34.2479C44.0384 35.0599 42.2846 35.4421 40.9099 35.4421C36.4537 35.4421 36.4537 32.003 36.4537 29.2325V16.9091H45.7924V12.5147H36.4537V4.82449Z" fill="#05494C"/>
<path d="M48.864 19.5652C48.8514 19.599 48.8382 19.6324 48.8259 19.6664L48.864 19.6779V19.5652Z" fill="#05494C"/>
<path d="M73.8079 21.5061C73.8079 15.4968 68.1669 12.6086 61.6725 12.6086H53.8467V16.5217H61.5304C65.7967 16.5217 68.5936 18.6645 68.5936 21.0404C68.5936 24.0217 63.948 24.1615 58.7336 25.0465C52.9504 26.0713 47.7358 27.8882 47.7358 32.8726C47.7358 37.6707 52.571 39.9999 57.9751 39.9999C63.1895 39.9999 66.9817 37.8106 68.8306 34.7825H68.9727C68.9727 36.3664 69.1625 37.764 69.7312 39.208H74.8034C74.1871 37.1583 73.8079 35.3881 73.8079 31.149V21.5061ZM68.5936 29.1459C68.5936 32.2205 64.9435 36.2733 59.0654 36.2733C55.6524 36.2733 53.2822 34.9689 53.2822 32.7794C53.2822 29.5652 58.4017 28.68 61.5304 28.1676C65.1805 27.562 66.6974 27.1428 68.5936 26.2577V29.1459Z" fill="#05494C"/>
<path d="M115 16.909V12.5146H105.662V4.82434H100.589V12.5146H86.132V9.79193C86.132 6.97375 86.132 4.15555 91.1093 4.15555C92.6262 4.15555 94.0009 4.4422 95.8024 5.20642V1.00308C94.1432 0.286619 92.0102 0 90.1614 0C83.3826 0 81.0598 3.48688 81.0598 9.40979V12.5145H76.3193V16.8612H81.0598V39.0243H86.132V16.8612H93.2981L95.7236 16.909H100.589V30.8564C100.589 33.7702 100.589 39.8363 109.169 39.8363C111.208 39.8363 113.388 39.4542 115 38.69V34.2478C113.246 35.0598 111.492 35.442 110.117 35.442C105.662 35.442 105.662 32.0028 105.662 29.2324V16.909H115Z" fill="#05494C"/>
</svg>
