<svg width="20" height="16" viewBox="0 0 20 16" fill="none" xmlns="http://www.w3.org/2000/svg">
<path d="M17.9038 0H2.02302C1.72217 0 1.43364 0.119511 1.22091 0.332242C1.00818 0.544972 0.888672 0.833497 0.888672 1.13434V12.4778C0.888672 12.7786 1.00818 13.0672 1.22091 13.2799C1.43364 13.4926 1.72217 13.6121 2.02302 13.6121H10.5306L10.8539 13.2151L11.3814 12.5685L11.3303 12.4778H2.02302V1.13434H17.9038V5.98933C18.3347 6.26827 18.7178 6.61492 19.0382 7.01592V1.13434C19.0382 0.833497 18.9187 0.544972 18.7059 0.332242C18.4932 0.119511 18.2047 0 17.9038 0Z" fill="#888888"/>
<path d="M3.7251 3.40308H13.367V4.31055H3.7251V3.40308Z" fill="#888888"/>
<path d="M3.7251 5.67175H9.96399V6.57923H3.7251V5.67175Z" fill="#888888"/>
<path d="M3.7251 9.64185H9.39682V10.5493H3.7251V9.64185Z" fill="#888888"/>
<path d="M15.3292 6.36938C14.6034 6.36361 13.8928 6.57693 13.2901 6.98146C12.6875 7.38598 12.2209 7.96289 11.9514 8.63679C11.6818 9.31069 11.6218 10.0502 11.7792 10.7588C11.9366 11.4673 12.3041 12.1119 12.8337 12.6083L11.7333 13.9525L12.2438 16L14.3197 13.4704C14.9767 13.6647 15.676 13.6647 16.3331 13.4704L18.409 16L18.9194 13.9525L17.8191 12.6083C18.3486 12.1119 18.7161 11.4673 18.8735 10.7588C19.031 10.0502 18.971 9.31069 18.7014 8.63679C18.4318 7.96289 17.9653 7.38598 17.3626 6.98146C16.76 6.57693 16.0493 6.36361 15.3235 6.36938H15.3292ZM15.3292 12.4268C14.8472 12.4201 14.378 12.271 13.9805 11.9984C13.583 11.7257 13.275 11.3416 13.0952 10.8944C12.9154 10.4472 12.8718 9.95677 12.9699 9.48484C13.0681 9.01292 13.3035 8.58054 13.6467 8.24206C13.9899 7.90359 14.4255 7.67413 14.8987 7.58253C15.372 7.49093 15.8617 7.54129 16.3064 7.72727C16.7511 7.91324 17.1309 8.22654 17.398 8.62777C17.6652 9.02899 17.8077 9.50024 17.8078 9.98226C17.8018 10.6346 17.5376 11.2581 17.0731 11.7162C16.6086 12.1743 15.9816 12.4298 15.3292 12.4268Z" fill="#888888"/>
</svg>
