<svg width="14" height="14" viewBox="0 0 14 14" fill="none" xmlns="http://www.w3.org/2000/svg">
<rect x="0.454261" y="0.454261" width="13.0915" height="13.0915" rx="6.54574" stroke="#222222" stroke-width="0.908523"/>
<path d="M8.80844 5.38948C8.89916 5.29903 9.01989 5.24902 9.14515 5.25001C9.27041 5.25101 9.3904 5.30292 9.4798 5.3948C9.56921 5.48669 9.62103 5.61135 9.62434 5.74249C9.62765 5.87363 9.58219 6.00098 9.49755 6.09768L6.92789 9.46332C6.8837 9.51317 6.83037 9.55317 6.77109 9.58093C6.7118 9.60869 6.64778 9.62365 6.58285 9.62491C6.51792 9.62617 6.45341 9.61371 6.39319 9.58826C6.33296 9.56281 6.27826 9.52491 6.23234 9.47681L4.52825 7.69215C4.48079 7.64584 4.44273 7.58999 4.41633 7.52794C4.38993 7.46589 4.37573 7.3989 4.37459 7.33098C4.37344 7.26306 4.38537 7.19559 4.40967 7.1326C4.43396 7.06962 4.47012 7.0124 4.51598 6.96436C4.56185 6.91633 4.61649 6.87846 4.67663 6.85302C4.73678 6.82757 4.8012 6.81508 4.86605 6.81628C4.93091 6.81748 4.99487 6.83234 5.05412 6.85999C5.11337 6.88764 5.16669 6.9275 5.21091 6.9772L6.5595 8.38888L8.7962 5.40432L8.80844 5.38948Z" fill="#222222"/>
</svg>
