<svg width="14" height="14" viewBox="0 0 14 14" fill="none" xmlns="http://www.w3.org/2000/svg">
<path d="M7 0C10.866 0 14 3.13396 14 7C14 10.866 10.866 14 7 14C3.13396 14 0 10.866 0 7C0 3.13396 3.13396 0 7 0ZM7 1.16667C3.77825 1.16667 1.16667 3.77825 1.16667 7C1.16667 10.2217 3.77825 12.8333 7 12.8333C10.2217 12.8333 12.8333 10.2217 12.8333 7C12.8333 3.77825 10.2217 1.16667 7 1.16667ZM7.16712 3.00008V3.78379C8.32679 3.87683 9.1665 4.57246 9.20354 5.62537H8.23871C8.17833 5.04087 7.76096 4.70225 7.16712 4.62817V6.5625L7.38996 6.61792C8.61 6.90112 9.27792 7.40221 9.27792 8.39008C9.27792 9.52671 8.35012 10.1713 7.16712 10.255V11.034H6.643V10.255C5.46467 10.1666 4.5325 9.50337 4.50012 8.39008H5.46029C5.54371 8.93287 5.89633 9.33187 6.643 9.41092V7.38792L6.45283 7.34125C5.2745 7.06796 4.63925 6.53917 4.63925 5.59737C4.63925 4.55817 5.474 3.87187 6.643 3.7835V2.99979L7.16712 3.00008ZM7.16712 7.50867V9.41529C7.96046 9.35492 8.29442 8.97925 8.29442 8.48283C8.29442 8.00508 8.03483 7.72217 7.16712 7.50867ZM6.643 4.62817C5.97508 4.71158 5.62246 5.09658 5.62246 5.51892C5.62246 5.94096 5.901 6.25158 6.64329 6.43737L6.643 4.62817Z" fill="#BCBABA"/>
</svg>
