<svg width="28" height="28" viewBox="0 0 28 28" fill="none" xmlns="http://www.w3.org/2000/svg">
<path d="M0 13.7967C0.000772432 17.0826 1.16636 20.2605 3.28726 22.7593C5.40816 25.258 8.3453 26.9136 11.5707 27.4286V17.7845H8.09143V13.7967H11.5749V10.7609C11.4979 10.0504 11.5775 9.33157 11.8078 8.65545C12.0381 7.97934 12.4135 7.36254 12.9074 6.84886C13.4013 6.33518 14.0016 5.93722 14.6655 5.68326C15.3295 5.42929 16.0409 5.32554 16.7493 5.37937C17.7778 5.39593 18.8064 5.48838 19.8213 5.65535V9.04849H18.0878C17.7931 9.00966 17.4936 9.03795 17.2113 9.13126C16.929 9.22457 16.6712 9.38051 16.4568 9.58757C16.2425 9.79462 16.0771 10.0475 15.973 10.3275C15.8688 10.6075 15.8285 10.9075 15.8551 11.2053V13.7967H19.6553L19.0478 17.7859H15.8551V27.4286C18.4438 27.0169 20.8611 25.8676 22.8208 24.1165C24.7805 22.3655 26.2004 20.0861 26.9126 17.5483C27.6247 15.0105 27.5992 12.3205 26.8391 9.79685C26.079 7.27317 24.6161 5.02147 22.6236 3.30836C20.6311 1.59525 18.1925 0.492465 15.5964 0.130569C13.0003 -0.231328 10.3555 0.162822 7.9752 1.26635C5.59486 2.36988 3.57863 4.13658 2.16522 6.35727C0.751809 8.57796 0.00041605 11.1596 0 13.7967Z" fill="white"/>
</svg>
