<svg width="14" height="14" viewBox="0 0 14 14" fill="none" xmlns="http://www.w3.org/2000/svg">
<path d="M12.9284 2.33333L9.1 6.11625V2.33333H8.09302L4.43333 6.04529V0H0V14H14V2.33333H12.9284ZM13.0667 13.0667H0.933333V0.933333H3.5V7.23333H4.57269L8.16667 3.58803V7.23333H9.29728L13.0667 3.50875V13.0667Z" fill="#BCBABA"/>
<path d="M3.5 9.0999V9.33324H4.43333V8.3999H3.5V9.0999ZM3.5 10.4999H4.43333V11.4332H3.5V10.4999ZM5.83333 9.0999V9.33324H6.76667V8.3999H5.83333V9.0999ZM5.83333 10.4999H6.76667V11.4332H5.83333V10.4999ZM8.16667 9.0999V9.33324H9.1V8.3999H8.16667V9.0999ZM8.16667 10.4999H9.1V11.4332H8.16667V10.4999ZM10.5 8.3999H11.4333V9.33324H10.5V8.3999ZM10.5 10.4999H11.4333V11.4332H10.5V10.4999Z" fill="#BCBABA"/>
</svg>
