<svg width="28" height="28" viewBox="0 0 28 28" fill="none" xmlns="http://www.w3.org/2000/svg">
<path d="M13.9965 6.67753C10.1025 6.67753 6.95987 9.82023 6.95987 13.7143C6.95987 17.6083 10.1025 20.751 13.9965 20.751C17.8905 20.751 21.0331 17.6083 21.0331 13.7143C21.0331 9.82023 17.8905 6.67753 13.9965 6.67753ZM13.9965 18.2877C11.4783 18.2877 9.4232 16.2326 9.4232 13.7143C9.4232 11.196 11.4783 9.14091 13.9965 9.14091C16.5147 9.14091 18.5698 11.196 18.5698 13.7143C18.5698 16.2326 16.5147 18.2877 13.9965 18.2877ZM21.3213 4.74937C20.4121 4.74937 19.6779 5.48358 19.6779 6.39277C19.6779 7.30195 20.4121 8.03616 21.3213 8.03616C22.2305 8.03616 22.9647 7.30538 22.9647 6.39277C22.9649 6.17688 22.9226 5.96306 22.8401 5.76355C22.7576 5.56404 22.6366 5.38276 22.4839 5.23011C22.3313 5.07745 22.15 4.95641 21.9505 4.87392C21.751 4.79142 21.5372 4.7491 21.3213 4.74937ZM27.7129 13.7143C27.7129 11.8204 27.7301 9.94374 27.6237 8.05332C27.5174 5.85755 27.0165 3.9088 25.4108 2.30315C23.8018 0.69406 21.8565 0.196581 19.6608 0.0902236C17.767 -0.016134 15.8903 0.0010205 13.9999 0.0010205C12.1061 0.0010205 10.2294 -0.016134 8.33906 0.0902236C6.14333 0.196581 4.19462 0.697491 2.58899 2.30315C0.979936 3.91223 0.482466 5.85755 0.376111 8.05332C0.269755 9.94717 0.286909 11.8239 0.286909 13.7143C0.286909 15.6047 0.269755 17.4848 0.376111 19.3753C0.482466 21.571 0.983367 23.5198 2.58899 25.1254C4.19805 26.7345 6.14333 27.232 8.33906 27.3383C10.2329 27.4447 12.1095 27.4276 13.9999 27.4276C15.8937 27.4276 17.7704 27.4447 19.6608 27.3383C21.8565 27.232 23.8052 26.7311 25.4108 25.1254C27.0199 23.5163 27.5174 21.571 27.6237 19.3753C27.7335 17.4848 27.7129 15.6081 27.7129 13.7143ZM24.6938 21.8043C24.4434 22.4287 24.1414 22.8953 23.6577 23.3757C23.1739 23.8594 22.7108 24.1613 22.0864 24.4118C20.2818 25.1289 15.9967 24.9676 13.9965 24.9676C11.9963 24.9676 7.70779 25.1289 5.90317 24.4152C5.27876 24.1648 4.81217 23.8629 4.33185 23.3791C3.84811 22.8953 3.54619 22.4322 3.29574 21.8078C2.58213 19.9997 2.74338 15.7145 2.74338 13.7143C2.74338 11.7141 2.58213 7.42547 3.29574 5.62082C3.54619 4.9964 3.84811 4.52979 4.33185 4.04947C4.8156 3.56915 5.27876 3.2638 5.90317 3.01334C7.70779 2.29972 11.9963 2.46097 13.9965 2.46097C15.9967 2.46097 20.2852 2.29972 22.0898 3.01334C22.7142 3.2638 23.1808 3.56571 23.6611 4.04947C24.1449 4.53323 24.4468 4.9964 24.6972 5.62082C25.4108 7.42547 25.2496 11.7141 25.2496 13.7143C25.2496 15.7145 25.4108 19.9997 24.6938 21.8043Z" fill="white"/>
</svg>
