<svg width="18" height="18" viewBox="0 0 18 18" fill="none" xmlns="http://www.w3.org/2000/svg">
<path fill-rule="evenodd" clip-rule="evenodd" d="M6.53863 1C6.70183 1 6.85836 1.06483 6.97376 1.18024C7.08917 1.29564 7.154 1.45217 7.154 1.61538V2.85105C8.61975 2.87315 10.0832 2.97476 11.5379 3.15546C11.6182 3.16548 11.6956 3.1912 11.7659 3.23116C11.8362 3.27112 11.8979 3.32452 11.9475 3.38833C11.9972 3.45214 12.0338 3.5251 12.0552 3.60305C12.0766 3.681 12.0825 3.76241 12.0725 3.84263C12.0625 3.92285 12.0368 4.00031 11.9968 4.07059C11.9568 4.14087 11.9034 4.20259 11.8396 4.25222C11.7758 4.30186 11.7029 4.33845 11.6249 4.35989C11.547 4.38133 11.4655 4.38721 11.3853 4.37719C10.8423 4.30919 10.2979 4.25284 9.75253 4.20816C9.27389 6.07543 8.44712 7.83558 7.31564 9.3962C7.57656 9.71127 7.84897 10.014 8.13614 10.3053C8.24398 10.4229 8.3019 10.5779 8.29768 10.7374C8.29347 10.8969 8.22744 11.0486 8.11353 11.1604C7.99963 11.2721 7.84676 11.3353 7.68718 11.3365C7.5276 11.3377 7.37379 11.2769 7.2582 11.1668C7.00948 10.9145 6.76948 10.6537 6.53863 10.3849C5.24337 11.8986 3.66749 13.1473 1.89787 14.0624C1.75283 14.1372 1.58399 14.1514 1.4285 14.1018C1.27302 14.0522 1.14361 13.9428 1.06875 13.7978C0.993891 13.6527 0.979715 13.4839 1.02934 13.3284C1.07896 13.1729 1.18832 13.0435 1.33336 12.9687C3.03476 12.0886 4.54073 10.8737 5.76079 9.39702C5.0449 8.40845 4.44939 7.33808 3.98686 6.20855C3.92871 6.05825 3.93183 5.89113 3.99556 5.74311C4.0593 5.59509 4.17856 5.47798 4.32771 5.41694C4.47686 5.35591 4.64401 5.35582 4.79323 5.41669C4.94244 5.47757 5.06183 5.59455 5.12572 5.7425C5.50302 6.66341 5.97662 7.54185 6.53863 8.36318C7.4238 7.06955 8.08685 5.63724 8.50044 4.12529C6.22792 4.01259 3.9499 4.09687 1.69192 4.37719C1.52991 4.39742 1.36649 4.35247 1.23762 4.25222C1.10876 4.15198 1.02499 4.00464 1.00475 3.84263C0.984512 3.68062 1.02946 3.5172 1.12971 3.38833C1.22996 3.25946 1.3773 3.1757 1.53931 3.15546C2.994 2.9744 4.45749 2.87278 5.92325 2.85105V1.61538C5.92325 1.45217 5.98808 1.29564 6.10349 1.18024C6.21889 1.06483 6.37542 1 6.53863 1ZM12.077 6.53839C12.1942 6.53834 12.3089 6.57175 12.4078 6.63469C12.5066 6.69763 12.5854 6.78747 12.635 6.89366L16.9426 16.1243C16.9767 16.1976 16.9961 16.2769 16.9997 16.3576C17.0032 16.4384 16.9907 16.5191 16.9631 16.595C16.9354 16.671 16.8931 16.7408 16.8385 16.8003C16.7838 16.8599 16.718 16.9082 16.6447 16.9424C16.4968 17.0113 16.3275 17.0187 16.174 16.9629C16.0206 16.907 15.8957 16.7925 15.8267 16.6445L14.8437 14.5383H9.31028L8.32732 16.6445C8.25834 16.7925 8.1334 16.907 7.97998 16.9629C7.82657 17.0187 7.65725 17.0113 7.50928 16.9424C7.3613 16.8734 7.24679 16.7484 7.19094 16.595C7.13508 16.4416 7.14245 16.2723 7.21144 16.1243L11.5191 6.89366C11.5686 6.78747 11.6474 6.69763 11.7463 6.63469C11.8451 6.57175 11.9598 6.53834 12.077 6.53839ZM9.88463 13.3075H14.2694L12.077 8.60933L9.88463 13.3075Z" fill="#888888" stroke="#888888" stroke-width="0.5"/>
</svg>
