<svg width="11" height="14" viewBox="0 0 11 14" fill="none" xmlns="http://www.w3.org/2000/svg">
<path d="M5.33333 1.33333C6.8 1.33333 8 2.53333 8 4C8 5.4 6.6 7.66667 5.33333 9.26667C4.06667 7.6 2.66667 5.4 2.66667 4C2.66667 2.53333 3.86667 1.33333 5.33333 1.33333ZM5.33333 0C3.13333 0 1.33333 1.8 1.33333 4C1.33333 7 5.33333 11.3333 5.33333 11.3333C5.33333 11.3333 9.33333 6.93333 9.33333 4C9.33333 1.8 7.53333 0 5.33333 0ZM5.33333 2.66667C4.6 2.66667 4 3.26667 4 4C4 4.73333 4.6 5.33333 5.33333 5.33333C6.06667 5.33333 6.66667 4.73333 6.66667 4C6.66667 3.26667 6.06667 2.66667 5.33333 2.66667ZM10.6667 11.3333C10.6667 12.8 8.26667 14 5.33333 14C2.4 14 0 12.8 0 11.3333C0 10.4667 0.8 9.73333 2.06667 9.2L2.46667 9.8C1.8 10.1333 1.33333 10.5333 1.33333 11C1.33333 11.9333 3.13333 12.6667 5.33333 12.6667C7.53333 12.6667 9.33333 11.9333 9.33333 11C9.33333 10.5333 8.86667 10.1333 8.13333 9.8L8.53333 9.2C9.86667 9.73333 10.6667 10.4667 10.6667 11.3333Z" fill="#BCBABA"/>
</svg>
