<svg width="18" height="18" viewBox="0 0 18 18" fill="none" xmlns="http://www.w3.org/2000/svg">
<path d="M13.2701 16.5771L13.2017 16.0939C12.8355 16.0139 12.5342 15.9011 12.2978 15.7558C12.0613 15.6104 11.8381 15.4304 11.628 15.2159L11.1539 15.4282C11.0659 15.473 10.976 15.4845 10.8841 15.4628C10.7916 15.441 10.7196 15.3881 10.6682 15.3042L10.516 15.0401C10.4517 14.9568 10.4286 14.8652 10.4466 14.7653C10.4646 14.6654 10.5137 14.5815 10.594 14.5136L10.9814 14.187C10.8626 13.836 10.8031 13.5056 10.8031 13.1956C10.8031 12.8856 10.8626 12.5552 10.9814 12.2042L10.594 11.8776C10.5137 11.8097 10.4646 11.7261 10.4466 11.6268C10.4286 11.5269 10.4517 11.435 10.516 11.3511L10.6682 11.0869C10.7196 11.0037 10.7916 10.9512 10.8841 10.9294C10.9766 10.9076 11.0665 10.9188 11.1539 10.963L11.628 11.1753C11.8381 10.9614 12.0613 10.7808 12.2978 10.6335C12.5342 10.4862 12.8355 10.3725 13.2017 10.2925L13.2691 9.8083C13.289 9.7084 13.3321 9.62578 13.3982 9.56045C13.4644 9.49449 13.5495 9.4615 13.6536 9.4615H13.9205C14.024 9.4615 14.1088 9.49449 14.1749 9.56045C14.2411 9.62578 14.2841 9.7084 14.3041 9.8083L14.3715 10.2925C14.7377 10.3725 15.039 10.4852 15.2754 10.6306C15.5125 10.776 15.736 10.956 15.9461 11.1705L16.4202 10.9573C16.5076 10.9131 16.5975 10.9019 16.69 10.9236C16.7819 10.9448 16.8539 10.9973 16.9059 11.0812L17.0572 11.3454C17.1214 11.4293 17.1449 11.5212 17.1275 11.6211C17.1095 11.721 17.0604 11.8046 16.9801 11.8718L16.5927 12.1984C16.7109 12.55 16.77 12.8805 16.77 13.1898C16.77 13.4992 16.7109 13.8296 16.5927 14.1812L16.9801 14.5079C17.0604 14.5757 17.1095 14.6596 17.1275 14.7596C17.1449 14.8595 17.1214 14.9514 17.0572 15.0353L16.9059 15.2994C16.8539 15.3827 16.7829 15.4352 16.6929 15.457C16.603 15.4788 16.514 15.4672 16.426 15.4224L15.9461 15.2159C15.736 15.4304 15.5125 15.6104 15.2754 15.7558C15.0384 15.9011 14.7374 16.0139 14.3725 16.0939L14.3041 16.5771C14.2841 16.677 14.2411 16.7603 14.1749 16.8269C14.1088 16.8922 14.024 16.9249 13.9205 16.9249H13.6536C13.5495 16.9249 13.4644 16.8919 13.3982 16.8259C13.3321 16.76 13.2893 16.677 13.2701 16.5771ZM13.7866 15.262C14.3538 15.262 14.8418 15.0586 15.2504 14.652C15.6583 14.2446 15.8623 13.7582 15.8623 13.1927C15.8623 12.6278 15.658 12.1418 15.2494 11.7344C14.8415 11.3271 14.3538 11.1234 13.7866 11.1234C13.22 11.1234 12.7324 11.3271 12.3238 11.7344C11.9152 12.1418 11.7109 12.6278 11.7109 13.1927C11.7109 13.7582 11.9152 14.2446 12.3238 14.652C12.7324 15.0586 13.22 15.262 13.7866 15.262ZM7.7455 9.425C7.54635 9.425 7.37289 9.35135 7.22514 9.20405C7.07738 9.05675 7.0035 8.88415 7.0035 8.68625C7.0035 8.48772 7.07738 8.3148 7.22514 8.16749C7.37289 8.02019 7.54635 7.94654 7.7455 7.94654C7.94466 7.94654 8.11811 8.02019 8.26587 8.16749C8.41363 8.3148 8.48751 8.48772 8.48751 8.68625C8.48751 8.88479 8.41363 9.05771 8.26587 9.20501C8.11811 9.35231 7.94466 9.425 7.7455 9.425ZM2.92729 15.4099V2.55147C2.92729 2.12237 3.0789 1.75636 3.38213 1.45343C3.68535 1.15114 4.0525 1 4.48357 1H9.08015C9.41229 1 9.70652 1.09126 9.96285 1.27379C10.2192 1.45567 10.4048 1.68463 10.5198 1.96066H11.9711C12.4015 1.96066 12.7687 2.11181 13.0725 2.41409C13.3758 2.71638 13.5274 3.08239 13.5274 3.51213V7.05985C13.5274 7.19627 13.4814 7.31026 13.3896 7.40185C13.2971 7.49407 13.1824 7.54018 13.0455 7.54018C12.9087 7.54018 12.794 7.49407 12.7015 7.40185C12.6097 7.31026 12.5637 7.19627 12.5637 7.05985V3.51213C12.5637 3.33985 12.5082 3.19831 12.397 3.08752C12.2859 2.97672 12.1439 2.92132 11.9711 2.92132H10.6364V8.50277C10.4546 8.63406 10.2882 8.75894 10.1373 8.87742C9.98565 8.99719 9.83083 9.13744 9.67279 9.29819V2.55147C9.67279 2.37919 9.61722 2.23765 9.50608 2.12686C9.39494 2.01606 9.25296 1.96066 9.08015 1.96066H4.48357C4.31076 1.96066 4.16878 2.01606 4.05764 2.12686C3.9465 2.23765 3.89093 2.37919 3.89093 2.55147V15.4099H8.57231C8.65968 15.6059 8.73966 15.7747 8.81226 15.9162C8.88421 16.0577 8.97351 16.2092 9.08015 16.3706H1.48182C1.34498 16.3706 1.23031 16.3248 1.1378 16.2332C1.04593 16.141 1 16.0267 1 15.8903C1 15.7538 1.04593 15.6395 1.1378 15.5473C1.23031 15.4557 1.34498 15.4099 1.48182 15.4099H2.92729Z" fill="#888888"/>
<path d="M3.89093 15.4099V2.55147C3.89093 2.37919 3.9465 2.23765 4.05764 2.12686C4.16878 2.01606 4.31076 1.96066 4.48357 1.96066H9.08015C9.25296 1.96066 9.39494 2.01606 9.50608 2.12686C9.61722 2.23765 9.67279 2.37919 9.67279 2.55147V9.29819C9.83083 9.13744 9.98565 8.99719 10.1373 8.87742C10.2882 8.75894 10.4546 8.63406 10.6364 8.50277V2.92132H11.9711C12.1439 2.92132 12.2859 2.97672 12.397 3.08752C12.5082 3.19831 12.5637 3.33985 12.5637 3.51213V7.05985C12.5637 7.19627 12.6097 7.31026 12.7015 7.40185C12.794 7.49407 12.9087 7.54018 13.0455 7.54018C13.1824 7.54018 13.2971 7.49407 13.3896 7.40185C13.4814 7.31026 13.5274 7.19627 13.5274 7.05985V3.51213C13.5274 3.08239 13.3758 2.71638 13.0725 2.41409C12.7687 2.11181 12.4015 1.96066 11.9711 1.96066H10.5198C10.4048 1.68463 10.2192 1.45567 9.96285 1.27379C9.70652 1.09126 9.41229 1 9.08015 1H4.48357C4.0525 1 3.68535 1.15114 3.38213 1.45343C3.0789 1.75636 2.92729 2.12237 2.92729 2.55147V15.4099H1.48182C1.34498 15.4099 1.23031 15.4557 1.1378 15.5473C1.04593 15.6395 1 15.7538 1 15.8903C1 16.0267 1.04593 16.141 1.1378 16.2332C1.23031 16.3248 1.34498 16.3706 1.48182 16.3706H9.08015C8.97351 16.2092 8.88421 16.0577 8.81226 15.9162C8.73966 15.7747 8.65968 15.6059 8.57231 15.4099H3.89093ZM3.89093 15.4099V1.96066M13.2701 16.5771L13.2017 16.0939C12.8355 16.0139 12.5342 15.9011 12.2978 15.7558C12.0613 15.6104 11.8381 15.4304 11.628 15.2159L11.1539 15.4282C11.0659 15.473 10.976 15.4845 10.8841 15.4628C10.7916 15.441 10.7196 15.3881 10.6682 15.3042L10.516 15.0401C10.4517 14.9568 10.4286 14.8652 10.4466 14.7653C10.4646 14.6654 10.5137 14.5815 10.594 14.5136L10.9814 14.187C10.8626 13.836 10.8031 13.5056 10.8031 13.1956C10.8031 12.8856 10.8626 12.5552 10.9814 12.2042L10.594 11.8776C10.5137 11.8097 10.4646 11.7261 10.4466 11.6268C10.4286 11.5269 10.4517 11.435 10.516 11.3511L10.6682 11.0869C10.7196 11.0037 10.7916 10.9512 10.8841 10.9294C10.9766 10.9076 11.0665 10.9188 11.1539 10.963L11.628 11.1753C11.8381 10.9614 12.0613 10.7808 12.2978 10.6335C12.5342 10.4862 12.8355 10.3725 13.2017 10.2925L13.2691 9.8083C13.289 9.70839 13.3321 9.62578 13.3982 9.56045C13.4644 9.49449 13.5495 9.4615 13.6536 9.4615H13.9205C14.024 9.4615 14.1088 9.49449 14.1749 9.56045C14.2411 9.62578 14.2841 9.70839 14.3041 9.8083L14.3715 10.2925C14.7377 10.3725 15.039 10.4852 15.2754 10.6306C15.5125 10.776 15.736 10.956 15.9461 11.1705L16.4202 10.9573C16.5076 10.9131 16.5975 10.9019 16.69 10.9236C16.7819 10.9448 16.8539 10.9973 16.9059 11.0812L17.0572 11.3454C17.1214 11.4293 17.1449 11.5212 17.1275 11.6211C17.1095 11.721 17.0604 11.8046 16.9801 11.8718L16.5927 12.1984C16.7109 12.55 16.77 12.8805 16.77 13.1898C16.77 13.4992 16.7109 13.8296 16.5927 14.1812L16.9801 14.5079C17.0604 14.5757 17.1095 14.6596 17.1275 14.7596C17.1449 14.8595 17.1214 14.9514 17.0572 15.0353L16.9059 15.2994C16.8539 15.3827 16.7829 15.4352 16.6929 15.457C16.603 15.4788 16.514 15.4672 16.426 15.4224L15.9461 15.2159C15.736 15.4304 15.5125 15.6104 15.2754 15.7558C15.0384 15.9011 14.7374 16.0139 14.3725 16.0939L14.3041 16.5771C14.2841 16.677 14.2411 16.7603 14.1749 16.8269C14.1088 16.8922 14.024 16.9249 13.9205 16.9249H13.6536C13.5495 16.9249 13.4644 16.8919 13.3982 16.8259C13.3321 16.76 13.2893 16.677 13.2701 16.5771ZM13.7866 15.262C14.3538 15.262 14.8418 15.0586 15.2504 14.652C15.6583 14.2446 15.8623 13.7582 15.8623 13.1927C15.8623 12.6278 15.658 12.1418 15.2494 11.7344C14.8415 11.3271 14.3538 11.1234 13.7866 11.1234C13.22 11.1234 12.7324 11.3271 12.3238 11.7344C11.9152 12.1418 11.7109 12.6278 11.7109 13.1927C11.7109 13.7582 11.9152 14.2446 12.3238 14.652C12.7324 15.0586 13.22 15.262 13.7866 15.262ZM7.7455 9.425C7.54635 9.425 7.37289 9.35135 7.22514 9.20405C7.07738 9.05675 7.0035 8.88415 7.0035 8.68625C7.0035 8.48772 7.07738 8.3148 7.22514 8.16749C7.37289 8.02019 7.54635 7.94654 7.7455 7.94654C7.94466 7.94654 8.11811 8.02019 8.26587 8.16749C8.41363 8.3148 8.48751 8.48772 8.48751 8.68625C8.48751 8.88479 8.41363 9.05771 8.26587 9.20501C8.11811 9.35231 7.94466 9.425 7.7455 9.425Z" stroke="#888888" stroke-width="0.5"/>
</svg>
