<svg width="12" height="14" viewBox="0 0 12 14" fill="none" xmlns="http://www.w3.org/2000/svg">
<path d="M6.26852 0.605469C7.71425 0.605469 9.10077 1.17978 10.1231 2.20207C11.1453 3.22436 11.7197 4.61087 11.7197 6.05661C11.7197 8.31338 9.99952 10.678 6.63193 13.2037C6.52709 13.2823 6.39957 13.3248 6.26852 13.3248C6.13747 13.3248 6.00995 13.2823 5.90511 13.2037C2.53752 10.678 0.817383 8.31338 0.817383 6.05661C0.817383 4.61087 1.3917 3.22436 2.41398 2.20207C3.43627 1.17978 4.82279 0.605469 6.26852 0.605469ZM6.26852 1.81683C5.14406 1.81683 4.06566 2.26352 3.27055 3.05863C2.47544 3.85374 2.02875 4.93215 2.02875 6.05661C2.02875 7.698 3.31158 9.59136 5.93418 11.6931L6.26852 11.9572L6.60286 11.6931C9.22546 9.59136 10.5083 7.698 10.5083 6.05661C10.5083 4.93215 10.0616 3.85374 9.26649 3.05863C8.47138 2.26352 7.39298 1.81683 6.26852 1.81683ZM6.26852 4.84524C6.58979 4.84524 6.89791 4.97287 7.12508 5.20004C7.35226 5.42722 7.47988 5.73533 7.47988 6.05661C7.47988 6.37788 7.35226 6.68599 7.12508 6.91317C6.89791 7.14034 6.58979 7.26797 6.26852 7.26797C5.94725 7.26797 5.63913 7.14034 5.41196 6.91317C5.18478 6.68599 5.05716 6.37788 5.05716 6.05661C5.05716 5.73533 5.18478 5.42722 5.41196 5.20004C5.63913 4.97287 5.94725 4.84524 6.26852 4.84524Z" fill="#9FA3A3"/>
</svg>
