<svg width="10" height="10" viewBox="0 0 10 10" fill="none" xmlns="http://www.w3.org/2000/svg">
<path d="M5 0C7.76146 0 10 2.23854 10 5C10 7.76146 7.76146 10 5 10C2.23854 10 0 7.76146 0 5C0 2.23854 2.23854 0 5 0ZM5 0.833333C2.69875 0.833333 0.833333 2.69875 0.833333 5C0.833333 7.30125 2.69875 9.16667 5 9.16667C7.30125 9.16667 9.16667 7.30125 9.16667 5C9.16667 2.69875 7.30125 0.833333 5 0.833333ZM5.11937 2.14292V2.70271C5.94771 2.76917 6.5475 3.26604 6.57396 4.01813H5.88479C5.84167 3.60063 5.54354 3.35875 5.11937 3.30583V4.6875L5.27854 4.72708C6.15 4.92938 6.62708 5.28729 6.62708 5.99292C6.62708 6.80479 5.96438 7.26521 5.11937 7.325V7.88146H4.745V7.325C3.90333 7.26187 3.2375 6.78812 3.21438 5.99292H3.90021C3.95979 6.38062 4.21167 6.66562 4.745 6.72208V5.27708L4.60917 5.24375C3.7675 5.04854 3.31375 4.67083 3.31375 3.99812C3.31375 3.25583 3.91 2.76562 4.745 2.7025V2.14271L5.11937 2.14292ZM5.11937 5.36333V6.72521C5.68604 6.68208 5.92458 6.41375 5.92458 6.05917C5.92458 5.71792 5.73917 5.51583 5.11937 5.36333ZM4.745 3.30583C4.26792 3.36542 4.01604 3.64042 4.01604 3.94208C4.01604 4.24354 4.215 4.46542 4.74521 4.59812L4.745 3.30583Z" fill="#888888"/>
</svg>
