<svg width="16" height="18" viewBox="0 0 16 18" fill="none" xmlns="http://www.w3.org/2000/svg">
<path d="M7.65039 8.52111C7.65039 8.28733 7.86054 8.11133 8.09375 8.11133C8.32695 8.11133 8.5371 8.28733 8.5371 8.52111V16.5558C8.5371 16.6736 8.49039 16.7867 8.40725 16.87C8.3241 16.9534 8.21133 17.0002 8.09375 17.0002C7.97616 17.0002 7.86339 16.9534 7.78025 16.87C7.6971 16.7867 7.65039 16.6736 7.65039 16.5558V8.52111Z" fill="#888888" stroke="#888888" stroke-width="0.5"/>
<path fill-rule="evenodd" clip-rule="evenodd" d="M6.32026 5.44444C6.32031 5.05028 6.45097 4.6673 6.69172 4.35565C6.93246 4.04401 7.26965 3.82136 7.65032 3.72267V1.44444C7.65032 1.32657 7.69703 1.21352 7.78018 1.13017C7.86333 1.04683 7.97609 1 8.09368 1C8.21126 1 8.32403 1.04683 8.40718 1.13017C8.49032 1.21352 8.53703 1.32657 8.53703 1.44444V3.72267C8.954 3.83188 9.31707 4.0895 9.55844 4.44741C9.7998 4.80533 9.90297 5.23907 9.84867 5.66765C9.79437 6.09624 9.58633 6.49036 9.26337 6.77643C8.94042 7.0625 8.52464 7.22096 8.09368 7.22222C7.62334 7.22222 7.17226 7.03492 6.83968 6.70152C6.5071 6.36812 6.32026 5.91594 6.32026 5.44444ZM8.09368 6.33333C8.32885 6.33333 8.55439 6.23968 8.72068 6.07298C8.88697 5.90628 8.98039 5.68019 8.98039 5.44444C8.98039 5.2087 8.88697 4.9826 8.72068 4.81591C8.55439 4.64921 8.32885 4.55556 8.09368 4.55556C7.85851 4.55556 7.63297 4.64921 7.46668 4.81591C7.30039 4.9826 7.20697 5.2087 7.20697 5.44444C7.20697 5.68019 7.30039 5.90628 7.46668 6.07298C7.63297 6.23968 7.85851 6.33333 8.09368 6.33333ZM4.54684 12.5556C4.54676 12.8882 4.45358 13.2141 4.2779 13.4963C4.10222 13.7785 3.85109 14.0057 3.55305 14.1519C3.255 14.2981 2.92201 14.3576 2.59193 14.3236C2.26185 14.2895 1.94791 14.1633 1.68581 13.9593C1.42371 13.7553 1.22397 13.4817 1.10928 13.1696C0.994601 12.8574 0.969578 12.5193 1.03706 12.1936C1.10454 11.8679 1.26183 11.5677 1.49103 11.3272C1.72023 11.0866 2.01215 10.9154 2.33361 10.8329C2.33131 10.8146 2.33013 10.7962 2.33007 10.7778V1.44444C2.33007 1.32657 2.37678 1.21352 2.45992 1.13017C2.54307 1.04683 2.65584 1 2.77342 1C2.89101 1 3.00377 1.04683 3.08692 1.13017C3.17006 1.21352 3.21678 1.32657 3.21678 1.44444V10.7778C3.21678 10.7964 3.21544 10.8147 3.21323 10.8329C3.59471 10.9309 3.9328 11.1534 4.17425 11.4653C4.4157 11.7772 4.54678 12.1608 4.54684 12.5556ZM3.66013 12.5556C3.66013 12.7913 3.56671 13.0174 3.40042 13.1841C3.23413 13.3508 3.00859 13.4444 2.77342 13.4444C2.53825 13.4444 2.31271 13.3508 2.14642 13.1841C1.98013 13.0174 1.88671 12.7913 1.88671 12.5556C1.88671 12.3198 1.98013 12.0937 2.14642 11.927C2.31271 11.7603 2.53825 11.6667 2.77342 11.6667C3.00859 11.6667 3.23413 11.7603 3.40042 11.927C3.56671 12.0937 3.66013 12.3198 3.66013 12.5556Z" fill="#888888" stroke="#888888" stroke-width="0.5"/>
<path d="M13.4141 17C13.2965 17 13.1837 16.9532 13.1006 16.8698C13.0174 16.7865 12.9707 16.6734 12.9707 16.5556V13.4098C12.9707 13.176 13.1809 13 13.4141 13C13.6473 13 13.8574 13.176 13.8574 13.4098V16.5556C13.8574 16.6734 13.8107 16.7865 13.7276 16.8698C13.6444 16.9532 13.5316 17 13.4141 17Z" fill="#888888" stroke="#888888" stroke-width="0.5"/>
<path fill-rule="evenodd" clip-rule="evenodd" d="M13.4137 1C13.2961 1 13.1833 1.04683 13.1002 1.13017C13.017 1.21352 12.9703 1.32657 12.9703 1.44444V8.61155C12.5533 8.72077 12.1903 8.97838 11.9489 9.3363C11.7075 9.69421 11.6044 10.128 11.6587 10.5565C11.713 10.9851 11.921 11.3793 12.244 11.6653C12.5669 11.9514 12.9827 12.1098 13.4137 12.1111C13.8456 12.1115 14.2629 11.9539 14.5871 11.6678C14.9113 11.3817 15.1203 10.9869 15.1747 10.5573C15.2291 10.1278 15.1253 9.69306 14.8827 9.3348C14.6401 8.97655 14.2754 8.71938 13.857 8.61155V1.44444C13.857 1.32657 13.8103 1.21352 13.7272 1.13017C13.644 1.04683 13.5313 1 13.4137 1ZM13.4137 9.44444C13.1785 9.44444 12.953 9.53809 12.7867 9.70479C12.6204 9.87149 12.527 10.0976 12.527 10.3333C12.527 10.5691 12.6204 10.7952 12.7867 10.9619C12.953 11.1286 13.1785 11.2222 13.4137 11.2222C13.6488 11.2222 13.8744 11.1286 14.0407 10.9619C14.207 10.7952 14.3004 10.5691 14.3004 10.3333C14.3004 10.0976 14.207 9.87149 14.0407 9.70479C13.8744 9.53809 13.6488 9.44444 13.4137 9.44444Z" fill="#888888" stroke="#888888" stroke-width="0.5"/>
<path d="M2.33008 16.5555C2.33008 16.6734 2.37679 16.7864 2.45993 16.8698C2.54308 16.9531 2.65585 16.9999 2.77343 16.9999C2.89102 16.9999 3.00379 16.9531 3.08693 16.8698C3.17008 16.7864 3.21679 16.6734 3.21679 16.5555V15.6319C3.21679 15.3982 3.00664 15.2222 2.77343 15.2222C2.54023 15.2222 2.33008 15.3982 2.33008 15.6319V16.5555Z" fill="#888888" stroke="#888888" stroke-width="0.5"/>
</svg>
