<svg width="165" height="53" viewBox="0 0 165 53" fill="none" xmlns="http://www.w3.org/2000/svg">
<rect x="0.5" y="0.5" width="164" height="52" rx="14.5" fill="#F3F6F6" stroke="#B1B0B0"/>
<path d="M51.62 32H50.18L47.228 26.96H43.7V32H42.44V19.4H47.48C48.512 19.4 49.4 19.772 50.144 20.516C50.888 21.26 51.26 22.148 51.26 23.18C51.26 24.044 51.002 24.806 50.486 25.466C49.994 26.114 49.346 26.558 48.542 26.798L51.62 32ZM47.48 20.588H43.7V25.772H47.48C48.176 25.772 48.77 25.52 49.262 25.016C49.754 24.488 50 23.876 50 23.18C50 22.472 49.754 21.86 49.262 21.344C48.77 20.84 48.176 20.588 47.48 20.588ZM60.5293 24.764V23H61.7173V32H60.5293V30.236C59.7013 31.556 58.4893 32.216 56.8933 32.216C55.6093 32.216 54.5113 31.76 53.5993 30.848C52.6993 29.936 52.2493 28.82 52.2493 27.5C52.2493 26.18 52.6993 25.064 53.5993 24.152C54.5113 23.24 55.6093 22.784 56.8933 22.784C58.4893 22.784 59.7013 23.444 60.5293 24.764ZM54.4633 30.038C55.1473 30.722 55.9873 31.064 56.9833 31.064C57.9793 31.064 58.8193 30.722 59.5033 30.038C60.1873 29.33 60.5293 28.484 60.5293 27.5C60.5293 26.504 60.1873 25.664 59.5033 24.98C58.8193 24.284 57.9793 23.936 56.9833 23.936C55.9873 23.936 55.1473 24.284 54.4633 24.98C53.7793 25.664 53.4373 26.504 53.4373 27.5C53.4373 28.484 53.7793 29.33 54.4633 30.038ZM71.9727 24.764V19.4H73.1607V32H71.9727V30.236C71.1447 31.556 69.9327 32.216 68.3367 32.216C67.0527 32.216 65.9547 31.76 65.0427 30.848C64.1427 29.936 63.6927 28.82 63.6927 27.5C63.6927 26.18 64.1427 25.064 65.0427 24.152C65.9547 23.24 67.0527 22.784 68.3367 22.784C69.9327 22.784 71.1447 23.444 71.9727 24.764ZM65.9067 30.038C66.5907 30.722 67.4307 31.064 68.4267 31.064C69.4227 31.064 70.2627 30.722 70.9467 30.038C71.6307 29.33 71.9727 28.484 71.9727 27.5C71.9727 26.504 71.6307 25.664 70.9467 24.98C70.2627 24.284 69.4227 23.936 68.4267 23.936C67.4307 23.936 66.5907 24.284 65.9067 24.98C65.2227 25.664 64.8807 26.504 64.8807 27.5C64.8807 28.484 65.2227 29.33 65.9067 30.038ZM77.134 20.228C77.134 20.468 77.05 20.672 76.882 20.84C76.714 21.008 76.51 21.092 76.27 21.092C76.03 21.092 75.826 21.008 75.658 20.84C75.49 20.672 75.406 20.468 75.406 20.228C75.406 19.988 75.49 19.784 75.658 19.616C75.826 19.448 76.03 19.364 76.27 19.364C76.51 19.364 76.714 19.448 76.882 19.616C77.05 19.784 77.134 19.988 77.134 20.228ZM76.864 32H75.676V23H76.864V32ZM85.721 27.716V23H86.909V32H85.721V30.596C85.049 31.676 84.041 32.216 82.697 32.216C81.617 32.216 80.759 31.886 80.123 31.226C79.487 30.554 79.169 29.654 79.169 28.526V23H80.357V28.526C80.357 29.33 80.567 29.954 80.987 30.398C81.419 30.842 82.025 31.064 82.805 31.064C83.705 31.064 84.413 30.782 84.929 30.218C85.457 29.654 85.721 28.82 85.721 27.716ZM90.3581 25.358C90.3581 26.054 90.9761 26.564 92.2121 26.888C92.5601 26.972 92.7881 27.032 92.8961 27.068C93.0041 27.092 93.2141 27.158 93.5261 27.266C93.8501 27.362 94.0721 27.446 94.1921 27.518C94.3241 27.59 94.5041 27.704 94.7321 27.86C94.9601 28.004 95.1221 28.154 95.2181 28.31C95.3141 28.454 95.4041 28.646 95.4881 28.886C95.5721 29.114 95.6141 29.36 95.6141 29.624C95.6141 30.392 95.3081 31.016 94.6961 31.496C94.1081 31.976 93.3281 32.216 92.3561 32.216C91.5161 32.216 90.7901 32.03 90.1781 31.658C89.5661 31.274 89.1341 30.77 88.8821 30.146L89.8901 29.552C90.0581 30.02 90.3581 30.392 90.7901 30.668C91.2341 30.932 91.7561 31.064 92.3561 31.064C92.9681 31.064 93.4661 30.944 93.8501 30.704C94.2341 30.464 94.4261 30.104 94.4261 29.624C94.4261 28.928 93.8081 28.418 92.5721 28.094C92.2241 28.01 91.9961 27.956 91.8881 27.932C91.7801 27.896 91.5641 27.83 91.2401 27.734C90.9281 27.626 90.7061 27.536 90.5741 27.464C90.4541 27.392 90.2801 27.284 90.0521 27.14C89.8241 26.984 89.6621 26.834 89.5661 26.69C89.4701 26.534 89.3801 26.342 89.2961 26.114C89.2121 25.874 89.1701 25.622 89.1701 25.358C89.1701 24.626 89.4581 24.014 90.0341 23.522C90.6341 23.03 91.3721 22.784 92.2481 22.784C92.9681 22.784 93.6041 22.946 94.1561 23.27C94.7201 23.594 95.1341 24.044 95.3981 24.62L94.4081 25.196C94.0721 24.356 93.3521 23.936 92.2481 23.936C91.7081 23.936 91.2581 24.062 90.8981 24.314C90.5381 24.566 90.3581 24.914 90.3581 25.358Z" fill="#888888"/>
<path d="M130 24L136 30L142 24" stroke="#BCBABA" stroke-width="2" stroke-linecap="round" stroke-linejoin="round"/>
<path d="M28.3333 20.3333C29.8 20.3333 31 21.5333 31 23C31 24.4 29.6 26.6667 28.3333 28.2667C27.0667 26.6 25.6667 24.4 25.6667 23C25.6667 21.5333 26.8667 20.3333 28.3333 20.3333ZM28.3333 19C26.1333 19 24.3333 20.8 24.3333 23C24.3333 26 28.3333 30.3333 28.3333 30.3333C28.3333 30.3333 32.3333 25.9333 32.3333 23C32.3333 20.8 30.5333 19 28.3333 19ZM28.3333 21.6667C27.6 21.6667 27 22.2667 27 23C27 23.7333 27.6 24.3333 28.3333 24.3333C29.0667 24.3333 29.6667 23.7333 29.6667 23C29.6667 22.2667 29.0667 21.6667 28.3333 21.6667ZM33.6667 30.3333C33.6667 31.8 31.2667 33 28.3333 33C25.4 33 23 31.8 23 30.3333C23 29.4667 23.8 28.7333 25.0667 28.2L25.4667 28.8C24.8 29.1333 24.3333 29.5333 24.3333 30C24.3333 30.9333 26.1333 31.6667 28.3333 31.6667C30.5333 31.6667 32.3333 30.9333 32.3333 30C32.3333 29.5333 31.8667 29.1333 31.1333 28.8L31.5333 28.2C32.8667 28.7333 33.6667 29.4667 33.6667 30.3333Z" fill="#BCBABA"/>
</svg>
