<svg width="28" height="28" viewBox="0 0 28 28" fill="none" xmlns="http://www.w3.org/2000/svg">
<path d="M14.2856 0C6.71211 0 0.571289 6.14082 0.571289 13.7143C0.571289 21.2878 6.71211 27.4286 14.2856 27.4286C21.859 27.4286 27.9999 21.2878 27.9999 13.7143C27.9999 6.14082 21.859 0 14.2856 0ZM20.8764 10.3378C20.8856 10.4816 20.8856 10.6316 20.8856 10.7786C20.8856 15.2724 17.4631 20.449 11.209 20.449C9.28047 20.449 7.49272 19.8888 5.9866 18.9245C6.26211 18.9551 6.52537 18.9673 6.807 18.9673C8.39884 18.9673 9.86211 18.4286 11.0284 17.5163C9.53455 17.4857 8.27945 16.5061 7.85088 15.1592C8.37435 15.2357 8.84578 15.2357 9.38455 15.098C8.61535 14.9417 7.92397 14.5239 7.42787 13.9157C6.93177 13.3074 6.66155 12.5461 6.66313 11.7612V11.7184C7.11313 11.9724 7.64272 12.1286 8.1968 12.15C7.73101 11.8396 7.34902 11.419 7.08469 10.9256C6.82036 10.4322 6.68187 9.88118 6.68149 9.32143C6.68149 8.68776 6.8468 8.10918 7.14374 7.60714C7.99752 8.65817 9.06291 9.51778 10.2707 10.1301C11.4784 10.7424 12.8015 11.0937 14.1539 11.1612C13.6733 8.85 15.3999 6.97959 17.4754 6.97959C18.455 6.97959 19.3366 7.3898 19.958 8.05102C20.7264 7.90714 21.4611 7.61939 22.1162 7.23367C21.8621 8.02041 21.3295 8.68469 20.6223 9.10408C21.308 9.03061 21.9692 8.84082 22.5815 8.57449C22.1192 9.25408 21.5407 9.85714 20.8764 10.3378Z" fill="white"/>
</svg>
